<?xml version="1.0" encoding="UTF-8"?>
<svg id="Layer_2" data-name="Layer 2" xmlns="http://www.w3.org/2000/svg" viewBox="0 0 377.24 180.44">
  <defs>
    <style>
      .cls-1 {
        fill: #438ac9;
      }

      .cls-2 {
        fill: none;
      }

      .cls-3 {
        fill: #d1539e;
      }

      .cls-4 {
        fill: #7cc243;
      }
    </style>
  </defs>
  <g id="Inside_print" data-name="Inside print">
    <g>
      <polygon class="cls-2" points="275.89 172.79 275.89 52.6 374.21 16.6 374.21 172.79 275.89 172.79"/>
      <path class="cls-2" d="M325.47,113.58c-28.54,0-51.77-23.54-51.77-52.48s23.22-52.48,51.77-52.48,51.77,23.54,51.77,52.48-23.22,52.48-51.77,52.48Z"/>
      <path class="cls-2" d="M334.51,109.6c-2.81.48-5.69.72-8.63.72h-3.82c-8.22,0-15.92-2.25-22.53-6.18h-17.14v-16.9l-4.7-2.02v-47.79l4.7-2.02v-17.53h18.24c6.36-3.53,13.66-5.55,21.43-5.55h3.98c2.9,0,5.75.23,8.52.7l30.37-13.03v31.98c.99,1.43,1.9,2.91,2.72,4.45l.91,1.75.46,1.06c2.59,5.79,3.9,11.98,3.9,18.42,0,.23,0,.47,0,.7.23,1.86.34,3.74.34,5.65,0,6.3-1.24,12.42-3.69,18.19l-.06.15c-1.08,2.52-2.4,4.95-3.91,7.22-.22.33-.44.65-.67.97v32.11l-30.42-13.05Z"/>
      <g>
        <path class="cls-2" d="M61.9,176.29C27.77,176.29,0,147.87,0,112.95v-40.85C0,37.15,27.64,8.73,61.6,8.73c1.3,0,2.62.04,3.92.13,19.58,1.29,34.98,14.99,38.73,33.21h64.48v99.35h-63.61v34.87h-43.23Z"/>
        <path class="cls-2" d="M235.5,174.63c-31.57,0-57.25-26.18-57.25-58.35v-49.01c0-32.17,25.68-58.35,57.25-58.35h57.42c29.38,0,53.65,22.67,56.88,51.75h.36v55.61c0,32.17-25.68,58.35-57.24,58.35h-57.42Z"/>
        <path class="cls-2" d="M171.53,176.09h-33.92c-34.19,0-62-28.47-62-63.45V6.97l50.34,2.07c18.78.78,36.3,8.58,49.66,22.05,14.14-14.12,33.27-22.16,53.02-22.16h47.47v165.71h-43.53c-15.2,0-29.16-5.57-40.03-14.81l-11.8,14.04v2.21h-1.86l-3.66,4.35-3.69-4.35Z"/>
        <path class="cls-1" d="M126.82,83.98h-63.61v-33.23s-.15-.05-.42-.06c-11.37-.74-20.88,9.2-20.88,21.41v40.85c0,11.83,8.95,21.43,19.99,21.43h1.31v-34.87h63.61v-15.52Z"/>
        <path class="cls-3" d="M286.95,102.59v18.26h-56.03v-57.34h56.03v17.38l21.3-9.13v-4.48c0-9.08-6.86-16.43-15.33-16.43h-57.42c-8.47,0-15.33,7.36-15.33,16.43v49.01c0,9.08,6.86,16.43,15.33,16.43h57.42c8.47,0,15.33-7.36,15.33-16.43v-13.69h-21.3Z"/>
        <path class="cls-4" d="M138.82,72.66v61.51h-1.21c-11.09,0-20.09-9.64-20.09-21.54v-61.99l6.7.28c8.52.35,16.59,4.17,22.57,10.68l28.87,31.42,28.49-31.15c6.45-7.05,15.27-11.02,24.48-11.02h5.56v81.88h-1.62c-11.51,0-20.83-10-20.83-22.34v-38.56l-36.65,43.61-36.27-42.79Z"/>
      </g>
      <polygon class="cls-3" points="332.3 76.58 332.3 130.88 317.81 130.88 317.81 81.89 332.3 76.58"/>
      <path class="cls-3" d="M325.47,50.54c-5.44,0-9.85,4.73-9.85,10.56s4.41,10.56,9.85,10.56,9.85-4.73,9.85-10.56-4.41-10.56-9.85-10.56ZM330.99,65.8c-.09.2-.19.4-.31.58-.21.31-.47.59-.77.84-.48.38-1.04.68-1.68.88-.64.2-1.43.31-2.35.31h-3.82c-1.36,0-2.46-1.18-2.46-2.63v-.72l3.41-1.46v1.64c.13.05.27.1.41.15.68.23,1.3.35,1.86.35.33,0,.69-.03,1.07-.09.38-.06.71-.19.98-.38.21-.15.38-.34.5-.55.12-.22.19-.53.19-.94s-.09-.7-.26-.92c-.17-.21-.39-.37-.67-.46-.28-.1-.61-.15-1-.16-.39,0-.75-.01-1.09-.01h-.7v-2.43h.72c.44,0,.84-.02,1.18-.05.34-.03.63-.1.87-.21.25-.11.44-.27.56-.46.12-.19.19-.47.19-.84,0-.27-.06-.5-.2-.66-.13-.17-.3-.3-.49-.4-.22-.11-.48-.18-.78-.22-.3-.04-.56-.06-.77-.06-.53,0-1.11.1-1.74.3-.28.09-.55.19-.82.32v1.54l-3.41-1.46v-.72c0-1.45,1.1-2.63,2.46-2.63h3.98c.8,0,1.5.07,2.1.22.6.15,1.1.35,1.49.6.47.3.81.66,1.04,1.09.02.04.04.08.06.12.19.4.28.86.28,1.38,0,.75-.22,1.43-.65,2.02-.44.59-1.01.97-1.73,1.14v.13c.29.04.6.13.92.25.32.13.62.31.89.56.28.25.5.55.66.89.16.34.25.8.25,1.36,0,.64-.12,1.24-.35,1.79Z"/>
    </g>
  </g>
</svg>